<?xml version="1.0" encoding="utf-8"?>
<!-- Generated by IcoMoon.io -->
<!DOCTYPE svg PUBLIC "-//W3C//DTD SVG 1.1//EN" "http://www.w3.org/Graphics/SVG/1.1/DTD/svg11.dtd">
<svg version="1.1" xmlns="http://www.w3.org/2000/svg" xmlns:xlink="http://www.w3.org/1999/xlink" width="128" height="128" viewBox="0 0 128 128">
<g>
	<line stroke-width="1" x1="" y1="" x2="" y2="" stroke="#449FDB" opacity=""></line>
</g>
	<path d="M116.772 21.060c-14.516-14.384-37.728-14.684-52.764-1.152-15.040-13.532-38.244-13.232-52.768 1.152-14.964 14.816-14.964 38.836 0 53.66 4.276 4.236 44.212 43.764 44.212 43.764 4.732 4.688 12.384 4.688 17.112 0 0 0 43.728-43.288 44.212-43.764 14.968-14.824 14.968-38.844-0.004-53.66zM111.072 69.072l-44.212 43.764c-1.572 1.564-4.136 1.564-5.7 0l-44.212-43.764c-11.8-11.68-11.8-30.684 0-42.364 11.376-11.26 29.664-11.656 41.636-0.888l5.424 4.88 5.42-4.88c11.976-10.768 30.264-10.376 41.64 0.888 11.8 11.676 11.8 30.68 0.004 42.364zM37.012 30.004c1.108 0 2 0.896 2 2s-0.896 2-2 2h-0.004c-7.176 0-12.996 5.82-12.996 12.996v0.004c0 1.104-0.896 2-2 2s-2-0.896-2-2v0c0-9.384 7.604-16.988 16.984-16.996 0.008 0 0.008-0.004 0.016-0.004z" fill="#a6373f"></path>
</svg>
